<svg width="47" height="46" viewBox="0 0 47 46" fill="none" xmlns="http://www.w3.org/2000/svg">
  <path
    d="M23.4912 0.0908203C11.0072 0.0908203 0.792969 10.3233 0.792969 22.9259C0.792969 34.3206 9.10053 43.7782 19.9503 45.4874V29.5348H14.1849V22.9259H19.9503V17.8894C19.9503 12.1692 23.3323 9.02429 28.5303 9.02429C31.0044 9.02429 33.592 9.45729 33.592 9.45729V15.0863H30.732C27.9174 15.0863 27.0322 16.8411 27.0322 18.6414V22.9259H33.3423L32.3209 29.5348H27.0322V45.4874C32.3809 44.6393 37.2514 41.8993 40.7645 37.7619C44.2775 33.6246 46.2016 28.3626 46.1895 22.9259C46.1895 10.3233 35.9753 0.0908203 23.4912 0.0908203Z"
    fill="#CACACA"/>
</svg>
