<svg width="46" height="46" viewBox="0 0 46 46" fill="none" xmlns="http://www.w3.org/2000/svg">
  <g clip-path="url(#clip0)">
    <path
      d="M18.7503 22.6981C18.7503 25.0976 20.6954 27.0427 23.0949 27.0427C25.4944 27.0427 27.4395 25.0976 27.4395 22.6981C27.4395 20.2986 25.4944 18.3535 23.0949 18.3535C20.6954 18.3535 18.7503 20.2986 18.7503 22.6981Z"
      fill="#CACACA"/>
    <path
      d="M12.9342 15.011C13.1431 14.4451 13.4763 13.9329 13.9092 13.5124C14.3297 13.0794 14.8416 12.7463 15.4079 12.5374C15.8671 12.359 16.5571 12.1467 17.8278 12.0889C19.2025 12.0262 19.6146 12.0127 23.0947 12.0127C26.5752 12.0127 26.9873 12.0259 28.3617 12.0885C29.6324 12.1467 30.3227 12.359 30.7816 12.5374C31.3479 12.7463 31.8601 13.0794 32.2802 13.5124C32.7132 13.9329 33.0464 14.4448 33.2556 15.011C33.4339 15.4703 33.6462 16.1606 33.7041 17.4313C33.7668 18.8056 33.7803 19.2178 33.7803 22.6982C33.7803 26.1784 33.7668 26.5905 33.7041 27.9652C33.6462 29.2359 33.4339 29.9258 33.2556 30.3851C33.0464 30.9514 32.7135 31.4633 32.2806 31.8838C31.8601 32.3167 31.3482 32.6499 30.7819 32.8587C30.3227 33.0374 29.6324 33.2498 28.3617 33.3076C26.9873 33.3703 26.5755 33.3834 23.0951 33.3834C19.6143 33.3834 19.2021 33.3703 17.8282 33.3076C16.5574 33.2498 15.8671 33.0374 15.4079 32.8587C14.2712 32.4202 13.3727 31.5218 12.9342 30.3851C12.7559 29.9258 12.5436 29.2359 12.4854 27.9652C12.4227 26.5905 12.4095 26.1784 12.4095 22.6982C12.4095 19.2178 12.4227 18.8056 12.4854 17.4313C12.5432 16.1606 12.7555 15.4703 12.9342 15.011ZM23.0947 29.3907C26.7913 29.3907 29.7879 26.3945 29.7879 22.6979C29.7879 19.0013 26.7913 16.0051 23.0947 16.0051C19.3985 16.0051 16.4019 19.0013 16.4019 22.6979C16.4019 26.3945 19.3985 29.3907 23.0947 29.3907ZM16.1373 17.3046C17.0011 17.3046 17.7014 16.6042 17.7014 15.7404C17.7014 14.8767 17.0011 14.1763 16.1373 14.1763C15.2735 14.1763 14.5732 14.8767 14.5732 15.7404C14.5735 16.6042 15.2735 17.3046 16.1373 17.3046Z"
      fill="#CACACA"/>
    <path
      d="M23.0947 0C35.6287 0 45.793 10.1643 45.793 22.6983C45.793 35.2323 35.6287 45.3966 23.0947 45.3966C10.5607 45.3966 0.396374 35.2323 0.396374 22.6983C0.396374 10.1643 10.5607 0 23.0947 0ZM10.1395 28.0719C10.2025 29.4594 10.4232 30.4066 10.7453 31.2358C11.4224 32.9866 12.8064 34.3706 14.5572 35.0477C15.386 35.3698 16.3336 35.5901 17.7207 35.6535C19.1106 35.7168 19.5546 35.7321 23.0943 35.7321C26.6344 35.7321 27.078 35.7168 28.4683 35.6535C29.8554 35.5901 30.803 35.3698 31.6318 35.0477C32.5018 34.7204 33.2894 34.2075 33.9406 33.5442C34.6035 32.8934 35.1164 32.1055 35.4437 31.2358C35.7658 30.407 35.9865 29.4594 36.0495 28.0722C36.1136 26.682 36.1285 26.238 36.1285 22.6983C36.1285 19.1586 36.1136 18.7146 36.0498 17.3247C35.9868 15.9372 35.7665 14.99 35.4444 14.1608C35.1171 13.2911 34.6038 12.5032 33.9406 11.8524C33.2898 11.1891 32.5018 10.6762 31.6322 10.3489C30.803 10.0268 29.8557 9.80651 28.4683 9.74313C27.0784 9.67975 26.6344 9.66451 23.0947 9.66451C19.555 9.66451 19.111 9.67975 17.7211 9.74348C16.3336 9.80651 15.3863 10.0268 14.5572 10.3485C13.6875 10.6758 12.8996 11.1891 12.2484 11.8524C11.5855 12.5035 11.0722 13.2911 10.7453 14.1608C10.4228 14.99 10.2025 15.9372 10.1392 17.3247C10.0758 18.7146 10.0609 19.1586 10.0609 22.6983C10.0609 26.238 10.0758 26.682 10.1395 28.0719Z"
      fill="#CACACA"/>
  </g>
  <defs>
    <clipPath id="clip0">
      <rect width="45.3966" height="45.3966" fill="white" transform="matrix(-1 0 0 1 45.793 0)"/>
    </clipPath>
  </defs>
</svg>
