<svg width="180" height="180" viewBox="0 0 180 180" fill="none" xmlns="http://www.w3.org/2000/svg">
  <rect opacity="0.01" width="180" height="180" fill="white"/>
  <circle cx="90" cy="90" r="90" fill="black"/>
  <circle cx="90" cy="90" r="78.5" stroke="white" stroke-width="14"/>
  <path fill-rule="evenodd" clip-rule="evenodd"
        d="M101.975 137.695H49.5V40.5H100.853C120.215 40.5 130.107 48.6228 130.107 64.3129V64.6598C130.107 76.1843 124.424 83.2656 113.55 85.3484V86.5981C126.529 88.8891 133.264 96.9426 133.264 110.203V110.48C133.264 128.323 122.67 137.695 101.975 137.695ZM70.1954 80.2804V54.2461H94.6791C104.571 54.2461 109.482 58.5506 109.482 67.0204V67.2981C109.482 75.9068 104.571 80.2804 94.6791 80.2804H70.1954ZM70.1954 92.9158V123.879H95.3105C106.184 123.879 111.586 118.673 111.586 108.398V108.12C111.586 98.0534 106.184 92.9158 95.3105 92.9158H70.1954Z"
        fill="white"/>
</svg>
