<?xml version="1.0" encoding="utf-8"?>
<svg viewBox="0 0 173 79" xmlns="http://www.w3.org/2000/svg">
    <style>:root>svg{display:none}:root>svg:target{display:block}</style>
    <svg fill="none" viewBox="0 0 12 12" id="editions-arrow" xmlns="http://www.w3.org/2000/svg">
        <path d="M11.34 5.17l-5.17 5.169L1 5.169" stroke="#fff"/>
    </svg>
    <svg fill="none" viewBox="0 0 47 46" id="fb" xmlns="http://www.w3.org/2000/svg">
        <path d="M23.491.09C11.007.09.793 10.324.793 22.927c0 11.395 8.308 20.852 19.157 22.561V29.535h-5.765v-6.61h5.765V17.89c0-5.72 3.382-8.865 8.58-8.865 2.474 0 5.062.433 5.062.433v5.63h-2.86c-2.815 0-3.7 1.754-3.7 3.554v4.285h6.31l-1.021 6.609h-5.289v15.952a22.675 22.675 0 0013.732-7.725 22.845 22.845 0 005.425-14.836C46.19 10.323 35.976.09 23.492.09z"
              fill="#CACACA"/>
    </svg>
    <svg fill="none" viewBox="0 0 12 11" id="gallery-filter-button" xmlns="http://www.w3.org/2000/svg">
        <path d="M11 5l-5 5-5-5" stroke="#fff"/>
    </svg>
    <svg fill="none" viewBox="0 0 46 46" id="instagram" xmlns="http://www.w3.org/2000/svg">
        <g clip-path="url(#dclip0)" fill="#CACACA">
            <path d="M18.75 22.698a4.345 4.345 0 108.69 0 4.345 4.345 0 00-8.69 0z"/>
            <path d="M12.934 15.011a4.04 4.04 0 01.975-1.499c.42-.433.933-.766 1.499-.975.46-.178 1.15-.39 2.42-.448 1.375-.063 1.787-.076 5.267-.076 3.48 0 3.892.013 5.267.075 1.27.059 1.96.271 2.42.45a4.032 4.032 0 011.498.974c.433.42.766.933.976 1.499.178.46.39 1.15.448 2.42.063 1.375.076 1.787.076 5.267 0 3.48-.013 3.892-.076 5.267-.058 1.27-.27 1.96-.448 2.42a4.04 4.04 0 01-.975 1.499c-.42.433-.933.766-1.5.975-.458.178-1.149.39-2.42.449-1.374.062-1.785.075-5.266.075-3.48 0-3.893-.013-5.267-.075-1.27-.058-1.96-.27-2.42-.45a4.316 4.316 0 01-2.474-2.473c-.178-.46-.39-1.15-.449-2.42-.062-1.375-.075-1.787-.075-5.267 0-3.48.013-3.892.075-5.267.058-1.27.27-1.96.45-2.42zm10.16 14.38a6.693 6.693 0 10.002-13.386 6.693 6.693 0 00-.001 13.386zm-6.957-12.086a1.564 1.564 0 100-3.129 1.564 1.564 0 000 3.129z"/>
            <path d="M23.095 0c12.534 0 22.698 10.164 22.698 22.698S35.629 45.397 23.095 45.397.396 35.232.396 22.698C.396 10.164 10.561 0 23.095 0zM10.14 28.072c.063 1.387.283 2.335.605 3.164a6.664 6.664 0 003.812 3.812c.829.322 1.777.542 3.164.605 1.39.064 1.834.08 5.373.08 3.54 0 3.984-.016 5.374-.08 1.387-.063 2.335-.283 3.164-.605a6.386 6.386 0 002.309-1.504 6.388 6.388 0 001.503-2.308c.322-.829.542-1.777.605-3.164.065-1.39.08-1.834.08-5.374 0-3.54-.015-3.983-.08-5.373-.062-1.388-.282-2.335-.605-3.164a6.386 6.386 0 00-1.503-2.309 6.384 6.384 0 00-2.309-1.503c-.829-.322-1.776-.542-3.164-.606-1.39-.063-1.834-.078-5.373-.078-3.54 0-3.984.015-5.374.078-1.387.064-2.335.284-3.164.605a6.39 6.39 0 00-2.309 1.504 6.385 6.385 0 00-1.503 2.309c-.322.829-.542 1.776-.606 3.164-.063 1.39-.078 1.834-.078 5.373 0 3.54.015 3.984.079 5.374z"/>
        </g>
        <defs>
            <clipPath id="dclip0">
                <path fill="#fff" transform="matrix(-1 0 0 1 45.793 0)" d="M0 0h45.397v45.397H0z"/>
            </clipPath>
        </defs>
    </svg>
    <svg fill="none" viewBox="0 0 81 79" id="lens" xmlns="http://www.w3.org/2000/svg">
        <path fill="#fff" d="M18.136 57.197L0 74.639 4.534 79 22.67 61.558z"/>
        <path fill-rule="evenodd" clip-rule="evenodd"
              d="M44.27 65.77c-16.229 0-29.385-13.087-29.385-29.23 0-16.145 13.156-29.232 29.385-29.232 16.228 0 29.384 13.087 29.384 29.231 0 16.144-13.156 29.232-29.384 29.232zm0 7.309c-20.286 0-36.73-16.36-36.73-36.54S23.983 0 44.27 0C64.555 0 81 16.36 81 36.54S64.555 73.078 44.27 73.078z"
              fill="#fff"/>
        <path d="M42 24v25h5.995V24H42z" fill="#fff"/>
        <path d="M57.234 34h-25v5.995h25V34z" fill="#fff"/>
    </svg>
    <svg fill="none" viewBox="0 0 173 40" id="logo-main" xmlns="http://www.w3.org/2000/svg">
        <path d="M2.79 32.78l-2.5-3.645h1.805l1.698 2.607 1.712-2.607h1.792L4.79 32.78l2.635 3.807H5.633l-1.84-2.79-1.833 2.79H.168l2.621-3.807zM7.6 29.135h1.725l1.516 4.225c.23.602.382 1.168.459 1.698h.053c.04-.247.115-.546.223-.897.108-.354.678-2.03 1.711-5.026H15l-3.187 8.443c-.58 1.55-1.546 2.325-2.898 2.325-.35 0-.692-.039-1.024-.115v-1.253c.238.054.51.08.815.08.764 0 1.3-.442 1.61-1.327l.277-.7L7.6 29.134zM23.28 39.222h-1.475v-2.635h-5.108v2.635h-1.462v-3.861h.606c.53-.76.95-1.676 1.26-2.75.315-1.077.501-2.236.56-3.476h4.528v6.226h1.091v3.861zm-2.648-3.861v-5.013h-1.604a13.65 13.65 0 01-.539 2.735c-.27.899-.6 1.658-.99 2.278h3.133zM31.272 32.848c0 1.217-.312 2.167-.937 2.85-.624.683-1.493 1.024-2.608 1.024-.696 0-1.311-.157-1.846-.472a3.114 3.114 0 01-1.233-1.354c-.287-.589-.431-1.271-.431-2.048 0-1.209.31-2.152.93-2.83.62-.679 1.493-1.018 2.621-1.018 1.078 0 1.932.348 2.56 1.044.63.692.944 1.627.944 2.804zm-5.424 0c0 1.72.635 2.58 1.907 2.58 1.257 0 1.886-.86 1.886-2.58 0-1.703-.633-2.554-1.9-2.554-.665 0-1.148.22-1.449.66-.296.44-.444 1.072-.444 1.894zM36.77 32.753v-3.618h1.476v3.618l2.87-3.618h1.672l-2.932 3.605 3.194 3.847h-1.745l-3.059-3.78v3.78H36.77v-3.78l-3.052 3.78h-1.739l3.188-3.847-2.925-3.605h1.671l2.857 3.618zM47.457 36.722c-1.159 0-2.066-.337-2.722-1.01-.651-.679-.977-1.611-.977-2.797 0-1.217.303-2.174.91-2.87.606-.697 1.44-1.045 2.5-1.045.983 0 1.76.299 2.33.896.571.598.857 1.42.857 2.466v.856h-4.966c.022.723.217 1.28.586 1.671.368.387.887.58 1.556.58.44 0 .85-.04 1.227-.122.382-.085.79-.224 1.226-.417v1.287a4.858 4.858 0 01-1.172.39 7.187 7.187 0 01-1.355.115zm-.29-6.523c-.503 0-.907.16-1.212.479-.301.319-.481.784-.54 1.395h3.383c-.009-.616-.157-1.08-.445-1.395-.287-.32-.682-.479-1.186-.479zM55.16 36.722c-1.128 0-1.986-.328-2.575-.984-.584-.66-.876-1.606-.876-2.837 0-1.253.305-2.216.916-2.89.616-.674 1.503-1.011 2.662-1.011.786 0 1.494.146 2.123.438l-.479 1.274c-.67-.261-1.222-.391-1.657-.391-1.29 0-1.934.855-1.934 2.567 0 .836.16 1.464.478 1.887.324.418.795.626 1.415.626a4.05 4.05 0 002.002-.525v1.381a3.124 3.124 0 01-.91.357 5.395 5.395 0 01-1.166.108zM64.586 29.135v1.24H62.16v6.212h-1.59v-6.212h-2.426v-1.24h6.442zM72.49 31.042c0 .88-.514 1.413-1.543 1.597v.054c.575.067 1.015.249 1.32.545.306.297.459.68.459 1.153 0 .705-.27 1.248-.809 1.63-.534.378-1.314.566-2.338.566h-3.558v-7.452h3.544c1.95 0 2.925.635 2.925 1.907zm-1.388 3.254c0-.36-.14-.613-.418-.761-.278-.153-.696-.23-1.253-.23h-1.826v2.11h1.866c1.087 0 1.63-.373 1.63-1.119zm-.196-3.12c0-.296-.116-.51-.35-.64-.229-.134-.573-.202-1.03-.202h-1.921v1.793h1.684c.53 0 .932-.068 1.206-.203.274-.139.411-.388.411-.747zM77.618 36.722c-1.16 0-2.067-.337-2.722-1.01-.652-.679-.978-1.611-.978-2.797 0-1.217.304-2.174.91-2.87.607-.697 1.44-1.045 2.5-1.045.984 0 1.761.299 2.331.896.571.598.856 1.42.856 2.466v.856H75.55c.023.723.218 1.28.586 1.671.369.387.888.58 1.557.58.44 0 .849-.04 1.226-.122.382-.085.79-.224 1.227-.417v1.287a4.857 4.857 0 01-1.173.39 7.187 7.187 0 01-1.354.115zm-.29-6.523c-.503 0-.907.16-1.213.479-.3.319-.48.784-.539 1.395h3.383c-.01-.616-.157-1.08-.445-1.395-.287-.32-.683-.479-1.186-.479zM83.898 29.135v2.992h3.51v-2.992h1.584v7.452h-1.584v-3.214h-3.51v3.214h-1.584v-7.452h1.584zM92.846 29.135v2.992h3.51v-2.992h1.584v7.452h-1.583v-3.214h-3.51v3.214h-1.584v-7.452h1.583zM104.874 36.587l-.317-1.037h-.053c-.36.453-.721.763-1.085.93-.364.161-.831.242-1.402.242-.732 0-1.305-.198-1.718-.593-.409-.395-.613-.954-.613-1.678 0-.768.285-1.347.855-1.738.571-.391 1.44-.604 2.608-.64l1.287-.04v-.398c0-.477-.112-.831-.337-1.065-.22-.238-.564-.357-1.031-.357-.382 0-.748.056-1.098.168-.35.113-.687.245-1.011.398l-.512-1.132c.404-.211.847-.37 1.328-.478.48-.113.934-.169 1.361-.169.947 0 1.662.207 2.142.62.486.413.728 1.062.728 1.947v5.02h-1.132zm-2.358-1.078c.575 0 1.035-.16 1.381-.478.35-.324.526-.775.526-1.355v-.647l-.957.04c-.746.028-1.289.154-1.631.378-.337.22-.505.56-.505 1.018 0 .332.099.59.296.775.198.18.494.27.89.27zM108.978 36.587h-1.772l2.075-3.052c-.503-.144-.898-.4-1.186-.768-.287-.373-.431-.834-.431-1.382 0-.705.251-1.255.754-1.65.504-.4 1.191-.6 2.062-.6h3.396v7.452h-1.59v-2.87h-1.502l-1.806 2.87zm.229-5.188c0 .382.144.67.431.862.292.189.683.283 1.173.283h1.475v-2.21h-1.725c-.431 0-.766.092-1.004.276-.233.185-.35.447-.35.789zM124.543 29.135v1.24h-3.234v6.212h-1.584v-7.452h4.818zM130.641 36.587l-.316-1.037h-.054c-.36.453-.721.763-1.085.93-.364.161-.831.242-1.402.242-.732 0-1.305-.198-1.718-.593-.409-.395-.613-.954-.613-1.678 0-.768.285-1.347.856-1.738.57-.391 1.439-.604 2.607-.64l1.287-.04v-.398c0-.477-.112-.831-.337-1.065-.22-.238-.563-.357-1.031-.357-.381 0-.747.056-1.098.168-.35.113-.687.245-1.011.398l-.512-1.132c.405-.211.847-.37 1.328-.478.48-.113.934-.169 1.361-.169.948 0 1.662.207 2.143.62.485.413.727 1.062.727 1.947v5.02h-1.132zm-2.358-1.078c.575 0 1.035-.16 1.381-.478.351-.324.526-.775.526-1.355v-.647l-.957.04c-.746.028-1.289.154-1.631.378-.337.22-.505.56-.505 1.018 0 .332.099.59.296.775.198.18.495.27.89.27zM140.109 36.587h-1.597v-6.212h-2.056c-.125 1.599-.296 2.848-.512 3.746-.211.898-.489 1.554-.835 1.968-.342.413-.786.62-1.334.62-.346 0-.636-.05-.87-.149v-1.24c.167.063.333.095.499.095.458 0 .818-.514 1.078-1.543.265-1.033.472-2.612.62-4.737h5.007v7.452zM145.634 36.722c-1.159 0-2.066-.337-2.722-1.01-.652-.679-.977-1.611-.977-2.797 0-1.217.303-2.174.909-2.87.607-.697 1.44-1.045 2.5-1.045.984 0 1.761.299 2.332.896.57.598.855 1.42.855 2.466v.856h-4.966c.023.723.218 1.28.587 1.671.368.387.887.58 1.556.58.44 0 .849-.04 1.226-.122a6.616 6.616 0 001.227-.417v1.287a4.847 4.847 0 01-1.173.39 7.177 7.177 0 01-1.354.115zm-.29-6.523c-.503 0-.907.16-1.213.479-.301.319-.48.784-.539 1.395h3.383c-.009-.616-.157-1.08-.445-1.395-.287-.32-.683-.479-1.186-.479zM154.111 36.722c-.944 0-1.676-.34-2.197-1.017h-.094c.063.629.094 1.01.094 1.145v3.053h-1.583V29.135h1.28c.036.139.11.471.222.997h.081c.494-.755 1.235-1.132 2.224-1.132.93 0 1.653.337 2.169 1.01.522.675.782 1.62.782 2.838 0 1.217-.265 2.167-.795 2.85-.526.683-1.253 1.024-2.183 1.024zm-.384-6.428c-.629 0-1.09.184-1.382.552-.287.369-.431.957-.431 1.766v.236c0 .907.144 1.565.431 1.974.288.404.757.606 1.409.606.548 0 .97-.224 1.266-.673.297-.45.445-1.09.445-1.92 0-.837-.148-1.468-.445-1.894-.292-.432-.723-.647-1.293-.647zM162.183 36.722c-1.159 0-2.066-.337-2.722-1.01-.651-.679-.977-1.611-.977-2.797 0-1.217.303-2.174.91-2.87.606-.697 1.439-1.045 2.499-1.045.984 0 1.761.299 2.332.896.57.598.856 1.42.856 2.466v.856h-4.966c.022.723.217 1.28.586 1.671.368.387.887.58 1.556.58.441 0 .849-.04 1.227-.122.382-.085.79-.224 1.226-.417v1.287a4.854 4.854 0 01-1.172.39 7.195 7.195 0 01-1.355.115zm-.29-6.523c-.503 0-.907.16-1.212.479-.301.319-.481.784-.539 1.395h3.382c-.009-.616-.157-1.08-.445-1.395-.287-.32-.682-.479-1.186-.479zM167.641 36.587h-1.772l2.075-3.052c-.503-.144-.898-.4-1.186-.768-.287-.373-.431-.834-.431-1.382 0-.705.252-1.255.755-1.65.503-.4 1.19-.6 2.062-.6h3.396v7.452h-1.59v-2.87h-1.503l-1.806 2.87zm.229-5.188c0 .382.144.67.432.862.292.189.682.283 1.172.283h1.476v-2.21h-1.725c-.432 0-.766.092-1.004.276-.234.185-.351.447-.351.789zM0 21.599h11.661c4.6 0 6.953-2.083 6.953-6.048v-.062c0-2.946-1.497-4.736-4.38-5.245v-.278c2.416-.462 3.679-2.036 3.679-4.597v-.077C17.913 1.805 15.714 0 11.412 0H0v21.599zM4.599 8.84V3.055h5.44c2.199 0 3.29.956 3.29 2.838v.062c0 1.913-1.091 2.885-3.29 2.885H4.6zm0 9.689v-6.881h5.581c2.417 0 3.617 1.142 3.617 3.379v.061c0 2.284-1.2 3.44-3.617 3.44H4.6zM22.946 0v21.599h4.537V0h-4.537zM36.975 22c3.664 0 6.33-1.62 7.312-4.366l.312.077c-.593 2.993.03 4.289 3.616 4.289.452 0 .904-.046 1.279-.108l.53-2.669-.78-.015c-.857-.016-1.107-.216-1.107-1.312v-7.42c0-3.672-2.463-5.431-7.717-5.431-5.58 0-8.402 2.175-8.169 5.94l4.475.37c-.187-2.484 1.091-3.61 3.6-3.61 2.246 0 3.306.817 3.306 2.684v.91l-4.427.803c-4.428.817-7.359 2.206-7.359 5.6v.046c0 2.685 1.84 4.212 5.13 4.212zm1.808-2.993c-1.527 0-2.354-.54-2.354-1.65v-.032c0-1.589 1.45-2.237 4.319-2.792l2.884-.555v.755c0 2.484-2.26 4.274-4.849 4.274zM53.841 21.599h4.537V14.07c0-3.64 1.73-5.893 4.599-5.893 2.136 0 3.196 1.095 3.196 3.193V21.6h4.537V10.29c0-3.394-2.012-5.183-5.753-5.183-3.399 0-5.722 1.48-7.093 4.566l-.312-.139c.623-1.836.842-2.93.842-4.134H53.84v16.199zM84.208 21.985c5.348 0 8.34-2.13 8.793-6.249l-4.584-.509c-.186 2.592-1.62 3.903-4.193 3.903-2.884 0-4.38-1.79-4.38-5.322v-.756c0-3.456 1.511-5.2 4.333-5.2 2.604 0 3.96 1.436 4.163 4.305l4.52-.509c-.358-4.366-3.242-6.634-8.667-6.634-5.893 0-8.996 2.854-8.996 8.316v.2c0 5.554 3.072 8.455 9.011 8.455zM97.52 21.599h4.537V14.07c0-3.64 1.715-5.878 4.599-5.878 2.135 0 3.196 1.08 3.196 3.178V21.6h4.536V10.29c0-3.394-2.026-5.183-5.752-5.183-3.43 0-5.737 1.48-7.094 4.55l-.327-.123c.608-1.728.826-3.008.842-4.535V0H97.52v21.599zM123.803 22c3.663 0 6.329-1.62 7.311-4.366l.312.077c-.593 2.993.031 4.289 3.617 4.289.452 0 .904-.046 1.278-.108l.53-2.669-.779-.015c-.858-.016-1.107-.216-1.107-1.312v-7.42c0-3.672-2.463-5.431-7.717-5.431-5.581 0-8.403 2.175-8.169 5.94l4.474.37c-.187-2.484 1.091-3.61 3.601-3.61 2.245 0 3.305.817 3.305 2.684v.91l-4.427.803c-4.428.817-7.359 2.206-7.359 5.6v.046c0 2.685 1.84 4.212 5.13 4.212zm1.808-2.993c-1.528 0-2.354-.54-2.354-1.65v-.032c0-1.589 1.45-2.237 4.318-2.792l2.884-.555v.755c0 2.484-2.26 4.274-4.848 4.274zM140.669 21.599h4.536v-6.773c0-4.227 1.325-5.785 4.786-6.032l2.23-.17-.53-3.733c-3.664.277-5.363 1.419-7.047 4.782l-.296-.139c.733-2.16.904-3.023.873-4.134h-4.552v16.199zM162.243 21.892c3.367 0 5.566-1.543 6.672-4.335l.328.108c-.53 1.697-.811 3.04-.826 3.934H173V0h-4.537v4.397c0 1.697.234 3.07.795 4.937l-.311.123c-1.107-2.777-3.321-4.381-6.704-4.381-4.677 0-7.14 2.823-7.14 8.223v.385c0 5.385 2.463 8.208 7.14 8.208zm1.715-2.777c-2.806 0-4.272-1.774-4.272-5.276v-.71c0-3.518 1.466-5.307 4.272-5.307 2.931 0 4.505 1.882 4.505 5.384v.556c0 3.486-1.574 5.353-4.505 5.353z"
              fill="#fff"/>
    </svg>
    <svg fill="none" viewBox="0 0 20 20" id="placemark" xmlns="http://www.w3.org/2000/svg">
        <circle cx="10" cy="10" r="9.5" fill="#9D5CD0" stroke="#fff"/>
    </svg>
    <svg fill="none" viewBox="0 0 16 16" id="search" xmlns="http://www.w3.org/2000/svg">
        <path fill="#fff" d="M3.575 11.584L0 15.117.894 16l3.575-3.532z"/>
        <path fill-rule="evenodd" clip-rule="evenodd"
              d="M8.76 13.32c-3.307 0-5.866-2.72-5.866-5.92 0-3.199 2.559-5.92 5.865-5.92 3.307 0 5.865 2.721 5.865 5.92 0 3.2-2.558 5.92-5.865 5.92zm0 1.48c-4 0-7.241-3.313-7.241-7.4S4.76 0 8.759 0C12.76 0 16 3.313 16 7.4c0 4.088-3.242 7.4-7.24 7.4z"
              fill="#fff"/>
    </svg>
    <svg fill="none" viewBox="0 0 40 40" id="telegram" xmlns="http://www.w3.org/2000/svg">
        <path d="M20 40c11.046 0 20-8.954 20-20S31.046 0 20 0 0 8.954 0 20s8.954 20 20 20z"
              fill="url(#ipaint0_linear)"/>
        <path fill-rule="evenodd" clip-rule="evenodd"
              d="M9.053 19.789l11.664-5.024c5.554-2.31 6.708-2.712 7.46-2.725.166-.003.536.038.775.233.203.164.258.386.285.541.027.156.06.51.034.788-.302 3.162-1.604 10.837-2.266 14.379-.28 1.498-.832 2-1.367 2.05-1.162.107-2.044-.767-3.169-1.505l-4.463-2.998c-1.975-1.301-.695-2.016.43-3.185.295-.306 5.413-4.96 5.512-5.383.012-.053.024-.25-.093-.354-.117-.104-.29-.068-.415-.04-.176.04-2.988 1.899-8.436 5.576-.798.548-1.52.816-2.168.802-.715-.016-2.088-.404-3.11-.736-1.252-.407-2.247-.623-2.16-1.314.044-.36.54-.728 1.487-1.105z"
              fill="#fff"/>
        <defs>
            <linearGradient id="ipaint0_linear" x1="20" y1="0" x2="20" y2="39.703" gradientUnits="userSpaceOnUse">
                <stop stop-color="#2AABEE"/>
                <stop offset="1" stop-color="#229ED9"/>
            </linearGradient>
        </defs>
    </svg>
    <svg fill="none" viewBox="0 0 16 16" id="tooltip" xmlns="http://www.w3.org/2000/svg">
        <path fill-rule="evenodd" clip-rule="evenodd" d="M8 16A8 8 0 108 0a8 8 0 000 16z" fill="#9D5CD0"/>
        <path d="M7.262 6.455h1.476V13H7.262V6.455zM8 4.903c-.287 0-.528-.092-.723-.274A.906.906 0 017 3.959c0-.264.092-.487.277-.67A.988.988 0 018 3c.287 0 .523.091.708.274.195.172.292.39.292.654a.949.949 0 01-.292.7.964.964 0 01-.708.275z"
              fill="#fff"/>
    </svg>
    <svg fill="none" viewBox="0 0 16 16" id="tooltip-touch" xmlns="http://www.w3.org/2000/svg">
        <path d="M15.5 8a7.5 7.5 0 11-15 0 7.5 7.5 0 0115 0z" stroke="#9D5CD0"/>
        <path d="M7.262 6.455h1.476V13H7.262V6.455zM8 4.903c-.287 0-.528-.092-.723-.274A.906.906 0 017 3.959c0-.264.092-.487.277-.67A.988.988 0 018 3c.287 0 .523.091.708.274.195.172.292.39.292.654a.949.949 0 01-.292.7.964.964 0 01-.708.275z"
              fill="#9D5CD0"/>
    </svg>
    <svg fill="none" viewBox="0 0 16 16" id="tooltip-touch--active" xmlns="http://www.w3.org/2000/svg">
        <path fill-rule="evenodd" clip-rule="evenodd" d="M8 16A8 8 0 108 0a8 8 0 000 16z" fill="#9D5CD0"/>
        <path d="M10.911 4.49l1.045 1.045-6.75 6.749-1.044-1.045 6.75-6.749z" fill="#fff"/>
        <path d="M11.794 11.08l-1.044 1.044L4 5.375l1.045-1.044 6.749 6.75z" fill="#fff"/>
    </svg>
    <svg fill="none" viewBox="0 0 46 46" id="vk" xmlns="http://www.w3.org/2000/svg">
        <path d="M22.698 0C10.163 0 0 10.162 0 22.698s10.163 22.699 22.698 22.699c12.536 0 22.699-10.163 22.699-22.699C45.397 10.162 35.234 0 22.698 0zm11.514 25.153c1.058 1.034 2.177 2.006 3.127 3.146.42.505.817 1.026 1.12 1.613.43.836.041 1.753-.708 1.803l-4.65-.001c-1.2.1-2.156-.385-2.962-1.206-.643-.654-1.24-1.353-1.86-2.03-.253-.278-.52-.54-.837-.745-.634-.412-1.185-.286-1.548.376-.37.674-.455 1.42-.49 2.17-.05 1.097-.381 1.384-1.482 1.436-2.35.11-4.581-.247-6.654-1.432-1.829-1.046-3.245-2.521-4.478-4.192-2.402-3.256-4.242-6.83-5.894-10.507-.372-.828-.1-1.271.813-1.288 1.518-.03 3.036-.026 4.553-.002.618.01 1.027.363 1.264.946.82 2.018 1.826 3.938 3.086 5.719.335.474.678.947 1.166 1.281.539.37.95.248 1.204-.353.162-.383.232-.791.268-1.201.12-1.403.135-2.805-.074-4.203-.13-.875-.622-1.44-1.494-1.604-.444-.085-.379-.249-.163-.503.375-.438.726-.71 1.428-.71H24.2c.828.162 1.014.534 1.126 1.368l.004 5.839c-.01.322.163 1.28.742 1.49.465.154.771-.219 1.049-.513 1.26-1.337 2.157-2.915 2.961-4.548.355-.72.661-1.466.959-2.213.22-.552.564-.824 1.188-.814l5.059.006c.149 0 .3.001.448.027.853.146 1.086.512.822 1.344-.415 1.307-1.221 2.396-2.01 3.487-.845 1.169-1.747 2.296-2.584 3.47-.769 1.072-.708 1.613.247 2.544z"
              fill="#CACACA"/>
    </svg>
    <svg fill="none" viewBox="0 0 40 40" id="whatsapp" xmlns="http://www.w3.org/2000/svg">
        <path d="M20 39.375c10.7 0 19.375-8.674 19.375-19.375C39.375 9.3 30.701.625 20 .625 9.3.625.625 9.299.625 20 .625 30.7 9.299 39.375 20 39.375z"
              fill="#30BF39"/>
        <path d="M25.875 21.751c-.25-.125-1.563-.875-1.813-.938-.25-.124-.437-.124-.625.126-.187.25-.75.875-.875 1-.187.187-.312.187-.562.062-.25-.125-1.125-.438-2.125-1.438-.75-.75-1.313-1.624-1.438-1.937-.125-.25 0-.438.125-.563.125-.124.25-.312.438-.437s.188-.25.313-.438c.125-.187.062-.312 0-.5-.063-.187-.563-1.5-.75-2.062-.188-.563-.438-.438-.563-.5-.188 0-.313-.063-.5-.063-.25 0-.563.125-.75.313-.25.25-1 .875-1 2.188 0 1.312.875 2.687 1 2.812.125.188 1.75 3.063 4.438 4.25 2.687 1.188 2.687.813 3.187.813S26 23.814 26.25 23.25c.25-.625.25-1.188.188-1.25-.125 0-.313-.063-.563-.25zm-5 6.438c-1.75 0-3.375-.5-4.813-1.438l-3.375 1.063 1.126-3.25c-1.063-1.5-1.688-3.313-1.688-5.188a8.802 8.802 0 018.813-8.813c4.875 0 8.75 3.938 8.75 8.813a8.802 8.802 0 01-8.813 8.813zm0-19.376c-5.813 0-10.563 4.75-10.563 10.563 0 1.938.5 3.813 1.5 5.438L9.876 30.5l5.875-1.875c1.563.875 3.313 1.313 5.125 1.313 5.813 0 10.563-4.75 10.563-10.563 0-5.813-4.688-10.563-10.563-10.563z"
              fill="#fff"/>
    </svg>
</svg>
